<?xml version="1.0" standalone="no"?>
<!DOCTYPE svg PUBLIC "-//W3C//DTD SVG 20010904//EN"
 "http://www.w3.org/TR/2001/REC-SVG-20010904/DTD/svg10.dtd">
<svg version="1.0" xmlns="http://www.w3.org/2000/svg"
 width="3434.000000pt" height="4001.000000pt" viewBox="0 0 3434.000000 4001.000000"
 preserveAspectRatio="xMidYMid meet">

<g transform="translate(0.000000,4001.000000) scale(0.100000,-0.100000)"
fill="#000000" stroke="none">
<path d="M17034 39646 l-205 -275 -115 -86 -114 -86 25 -33 25 -33 -8200
-10933 c-4510 -6013 -8200 -10937 -8200 -10942 0 -7 955 -728 964 -728 2 0
3645 4855 8096 10790 4451 5935 8096 10790 8100 10790 4 0 3649 -4855 8100
-10790 5058 -6744 8097 -10787 8104 -10783 6 4 172 128 369 275 l357 268 0
245 0 245 -8086 10781 -8085 10781 25 33 25 33 -114 86 -115 86 -206 275
c-114 151 -211 275 -216 275 -5 0 -42 -25 -82 -55 -40 -30 -75 -55 -78 -55 -2
0 -38 25 -78 55 -40 30 -77 55 -82 55 -4 0 -100 -123 -214 -274z"/>
<path d="M17001 34469 c-548 -62 -1050 -337 -1376 -754 -34 -44 -325 -451
-645 -905 -678 -959 -1146 -1621 -1485 -2100 -17 -25 -114 -162 -215 -305
-359 -508 -1824 -2581 -1880 -2660 -32 -44 -297 -420 -590 -835 -293 -415
-597 -845 -675 -955 -78 -110 -436 -616 -795 -1125 -359 -509 -717 -1015 -795
-1125 -290 -410 -1129 -1596 -1223 -1730 -65 -93 -1042 -1475 -1445 -2045
-220 -311 -416 -587 -435 -615 -448 -635 -537 -757 -558 -765 -16 -6 -24 -17
-24 -32 0 -13 -16 -47 -36 -76 -39 -59 -39 -74 3 -94 l28 -13 5 -8315 c5
-7861 7 -8320 23 -8400 97 -472 278 -814 589 -1116 227 -220 478 -373 776
-473 l93 -31 10866 0 10865 0 107 35 c457 153 861 484 1103 905 131 228 208
450 256 735 15 93 17 708 22 8385 l5 8284 25 6 c35 8 36 34 2 88 -16 26 -32
59 -36 74 -3 15 -17 33 -31 40 -15 8 -2134 2998 -5346 7543 -2926 4142 -5342
7558 -5369 7593 -312 410 -782 688 -1298 768 -121 19 -400 26 -511 13z m459
-1248 c120 -41 226 -106 315 -196 54 -54 1284 -1788 5318 -7497 l5247 -7426
-2 -8144 -3 -8143 -23 -75 c-89 -289 -303 -497 -592 -573 l-85 -22 -3290 0
-3290 0 -5 3770 c-5 3567 -6 3775 -23 3858 -82 406 -229 709 -488 1005 -255
293 -626 517 -1021 617 -243 62 -123 59 -2208 63 -1284 2 -1954 0 -2054 -8
-278 -19 -530 -86 -764 -202 -535 -264 -920 -739 -1068 -1317 -68 -265 -64 0
-64 -4089 l0 -3702 -3297 2 -3298 3 -80 23 c-296 84 -503 291 -587 587 l-23
80 -3 8132 -2 8131 5246 7424 c2886 4082 5265 7445 5287 7471 92 109 257 207
414 247 63 16 104 19 213 16 121 -3 145 -6 230 -35z m1739 -24001 c293 -60
534 -292 614 -591 l22 -84 0 -3700 0 -3700 -2628 -3 -2627 -2 2 3727 3 3728
24 70 c98 293 323 496 616 558 61 13 322 15 1975 16 1847 1 1908 0 1999 -19z"/>
</g>
</svg>
